<svg version="1.1" id="Layer_1" xmlns="http://www.w3.org/2000/svg" x="0px" y="0px" viewBox="0 0 449.5 191" style="enable-background:new 0 0 449.5 191;" xmlns:xlink="http://www.w3.org/1999/xlink" xml:space="preserve" data-inject-url="https://cdn.shopify.com/s/files/1/0014/1962/t/53/assets/logo-banjo-kazooie.svg?v=9438749822255680804" class="injectable">

<g>
	<path class="st0" d="M66.4,85.4c1.4-5.9-0.1-10.4-4.2-13.3c-0.4-0.2-0.9-0.6-1.2-0.9l0,0l0,0c-0.4-0.2-0.9-0.5-1.4-0.6   c-1.6-0.7-3.2-1.1-4.4-1.4c-1.6-0.4-2.8-0.4-2.8-0.4l-2.5-0.1l1.2-2.2c0-0.1,4.2-7.6,1.5-13.4c-1.6-3.3-5-5.4-10.6-6.4   c-1.8-0.4-3.8-0.5-5.9-0.5c-12.8,0-29.2,5.7-34.5,7.6C1.4,54,1.1,54.3,1,54.5c-0.1,0.2-0.1,0.6,0,0.9l22.2,59.8   c0.2,0.5,0.9,0.9,1.4,0.7c5.2-1.6,17.7-6,27.9-13.1c0.5-0.4,1-0.6,1.4-1c0.2-0.1,0.4-0.2,0.6-0.5c0.2-0.1,0.5-0.4,0.7-0.6   C61.4,95.8,65.1,90.6,66.4,85.4z M34.2,66.7c-0.1,1.2-0.7,2.2-1.4,2.9c-0.6,0.7-1.2,1.1-1.4,1.2l-1.5,1l-5.8-11.7l2.2-0.2   c3.2-0.2,5.2,0.9,6.1,1.8C33.8,63.1,34.4,64.8,34.2,66.7z M43.7,93.2L43.7,93.2c-1.5,1.5-3.8,2.5-4.1,2.6L38,96.4l-2.2-11.9   l1.6-0.1c5.3-0.5,7,1.8,7.5,2.9C46,89.2,45.5,91.5,43.7,93.2z M356.7,83.4c0-7.7-6.3-14.1-14.1-14.1c-7.7,0-14.1,6.4-14.1,14.1   s6.3,14.1,14.1,14.1C350.3,97.5,356.7,91.1,356.7,83.4z M202.4,93c0.4,0.7,0.7,1.4,1.2,2c0.2,0.4,0.5,0.7,0.7,1.1   c0.1,0.2,0.4,0.4,0.5,0.6c4.8,6.1,12,9.8,21,10.9c4.3-6.6,10.3-11.9,17.7-15.6c8.1-4.1,16.2-5.7,23.6-4.8c2.3-4.5,3.3-9.3,3.1-14.4   c-0.4-9-3.8-16.5-10.1-21.5c-5.8-4.8-13.8-7.4-23-7.4c-0.7,0-1.5,0-2.3,0c-10.3,0.5-20.1,4.7-26.9,11.4c-0.1,0.1-0.2,0.2-0.4,0.4   c-0.4,0.5-0.9,0.9-1.2,1.4c-0.6,0.6-1.1,1.4-1.6,2.1c-4.3,5.8-6.5,12.5-6.1,19.5C198.9,84.1,200.1,88.9,202.4,93z M220.9,65.7   c2.1-3.6,5.2-5.7,8.6-6c2.8-0.2,5.7,0.6,8.1,2.6c3.4,2.8,5.8,7.5,6.3,12.7c0.4,4.3-0.4,8.6-2.3,11.9c-2.1,3.6-5.2,5.7-8.6,6   c-0.4,0-0.7,0-1.1,0c-3.1,0-6.1-1.5-8.6-4.2c-2.6-2.8-4.3-6.9-4.8-11.2c-0.1-0.7-0.1-1.5-0.1-2.2C218.5,71.8,219.3,68.5,220.9,65.7   z M71.6,93l24.4-2.6l5.8,13.4c0.1,0.1,0.2,0.2,0.2,0.2c0.1,0,0.2,0,0.4,0l3.6-1.8l2.6-4.4c0.6-1.1,1.7-2,2.9-2.2   c1.2-0.2,2.6,0,3.7,0.7l0.9,0.6l6.8-3.6l-17.7-2.1l3.1-20.4L83.9,37.2c-0.1-0.1-0.2-0.1-0.4-0.1l0,0l-3.1,0.1   c-0.1,0-0.2,0.1-0.4,0.2L63.5,69.4c3.9,2.7,7.7,7.6,5.7,16.7c-1.2,5.7-4.9,11.1-11.1,16.1l6.9,3.4c0.6-1,1.5-1.7,2.7-2.1l2.6-0.7   L71.6,93z M83.6,61.9L92,79.5L75,80L83.6,61.9z M60.8,131.2l-28.7-5.4c0,0,0,0-0.1,0c-0.2,0-0.5,0.1-0.5,0.4l-3.1,12.8   c0,0.2,0.1,0.5,0.4,0.6l28.5,8.2c0.2,0,0.4,0,0.4,0s0.1-0.1,0.2-0.4l3.2-15.6c0-0.1,0-0.2-0.1-0.4   C61.1,131.3,60.9,131.2,60.8,131.2z M124.1,90.5L124.1,90.5l2.1,0.2l3.4,0.4c0.2,0,0.4-0.1,0.4-0.1s0.1-0.1,0.1-0.4l0.4-31.9   l38.6,35.4c0.1-0.1,0.2-0.1,0.4-0.2c0.5-0.2,1.1-0.5,1.8-0.9l5.8-38.5c-0.2-2.1-0.5-4.3-0.9-6.5c-0.1-0.9,0.1-1.6,0.6-2.2   c0.4-0.6,1-1,1.7-1.1l0.7-5.2c-2.8-2-4.9-4.7-6.1-8l-13.9-0.1c-0.7,0-1.2,0.5-1.4,1.1l-4.4,27.6l-34-36.1c-0.2-0.2-0.5-0.1-0.6-0.1   s-0.4,0.1-0.4,0.5l-7,45.8l-0.4,2.2l-0.4,2.2l-2.2,14.1l13.4,1.6L124.1,90.5z M179.6,47.9L179.6,47.9L179.6,47.9L179.6,47.9   c0.2,1.8,0.5,3.6,0.7,5.5c1.8,14.7,3.4,34.6-0.9,38.2c-1.6,1.4-3.6,2.6-5.4,3.6c-0.6,0.2-1.1,0.6-1.7,0.9l0,0   c-0.4,0.2-0.7,0.4-1.1,0.5l0.7,1.6l1.2,2.3l8.5,16.3h0.4c3.9-2.6,13.6-9.3,18.3-17.7c0.2-0.5,0.5-1,0.7-1.6   c-3.6-5.2-5.7-11.5-5.9-18.6c-0.4-9.1,2.9-17.9,9.6-25.1c0-2.8-0.1-5.7-0.2-8.4c0-0.4-0.2-0.6-0.4-0.7c-0.1-0.1-0.4-0.2-0.9-0.2   l-22.1,3.1L179.6,47.9z M279.1,86l26.8,13c0.1,0.1,0.4,0,0.4,0c0.1,0,0.2-0.1,0.2-0.2l5.9-14.7c0.1-0.1,0-0.4,0-0.4   c0-0.1-0.1-0.2-0.2-0.2l-27.4-10.3h-0.1c-0.2,0-0.4,0.1-0.5,0.2l-5.3,12C278.9,85.6,278.9,85.9,279.1,86z M176.2,30.1   c0.1,0.5,0.4,1,0.6,1.5c0.7,1.6,1.8,2.9,3.1,4.1c0.4,0.4,0.9,0.7,1.4,1.1c0.5,0.4,0.9,0.6,1.4,0.9c2,1.1,4.3,1.7,6.8,1.7   c7.7,0,14.1-6.3,14.1-14.1c0-7.7-6.3-14.1-14.1-14.1c-7.7,0-14.1,6.3-14.1,14.1c0,1.1,0.1,2.2,0.4,3.2   C175.8,29.1,176.1,29.6,176.2,30.1z M357.9,100.8h-0.1h-0.1l-20,6.9c-0.2,0-0.2,0.2-0.2,0.5l1.8,7.5c14.5,10.3,19,26.4,11.5,42.1   c-0.4,0.6-0.6,1.4-1,2l1.8,7.9c0,0.1,0.1,0.2,0.1,0.2s0.1,0,0.2,0l18.1-5.4c0.1,0,0.2-0.2,0.2-0.5l-12.2-60.8   C358,101,357.9,100.8,357.9,100.8z M340.3,121c-0.6-0.6-1.4-1.2-2.1-1.7c-0.5-0.4-1.1-0.9-1.6-1.2c-0.1-0.1-0.2-0.2-0.5-0.2   c-2-1.4-4.1-2.6-6.4-3.7c-5.9-2.8-12-4.2-18.1-4.2c-5.9,0-11.5,1.4-16.7,3.9c-0.4,0.1-0.7,0.4-1.1,0.6c-0.1,0.1-0.2,0.1-0.5,0.2   c-0.5,0.2-1.1,0.6-1.6,1c-4.5,3.1-8.2,7.1-10.4,12c-3.3,6.9-4.2,14-2.6,20.4c0.1,0.6,0.4,1.2,0.5,1.8c0,0.2,0.1,0.4,0.2,0.6   c0.1,0.4,0.2,0.7,0.4,1.1c3.1,7.5,9.5,13.8,18.6,18.1c17.7,8.5,38.5,3.6,47.4-11.1c0.1-0.1,0.2-0.4,0.4-0.5   c0.4-0.5,0.6-1.1,0.9-1.6c0.1-0.1,0.1-0.4,0.2-0.6c0.2-0.6,0.6-1.2,0.9-2C353.4,141.9,350.4,129.8,340.3,121z M323.9,145.6   c-1.5,3.6-3.7,6.5-6.3,8.5c-2.6,2.1-5.5,3.2-8.5,3.2c-1.4,0-2.7-0.2-3.9-0.7c-6.8-2.7-9.3-12-5.8-20.8c1.7-4.2,4.4-7.6,7.9-9.6   c3.6-2.2,7.4-2.6,10.7-1.2C324.9,127.6,327.4,136.8,323.9,145.6z M417.4,153.7c-0.1-0.1-0.4-0.1-0.6-0.1l-18.4,4.1l-1.6-14.3   l16.3,1.4c0.4,0,0.5-0.1,0.6-0.2c0.1-0.1,0.2-0.4,0.1-0.7l-3.7-12.9c-0.1-0.2-0.2-0.4-0.4-0.5c-0.1,0-0.4-0.1-0.6,0l-14.7,5   l-1.2-13.3l19.9-0.5c0.4,0,0.5-0.2,0.6-0.2c0.1-0.1,0.2-0.4,0.1-0.6l-3.8-15.4c0-0.2-0.2-0.4-0.4-0.5c-0.1,0-0.2-0.1-0.6-0.1   l-32.9,8.4c-0.4,0.1-0.6,0.4-0.6,0.9l4.8,59.6c0,0.1,0,0.2,0.1,0.2c0,0,0.1,0.1,0.2,0l37.7-3.9c0.4,0,0.7-0.4,0.7-0.9l-1.5-15   C417.6,153.9,417.5,153.7,417.4,153.7z M290.9,112.1c-0.5-1.7-1.1-3.4-1.8-4.9c-4.4-8.8-11.3-14.4-19.9-16.1   c-0.4-0.1-0.7-0.1-1.2-0.2c-0.2,0-0.5-0.1-0.7-0.1c-0.6-0.1-1.2-0.1-2-0.1c-6.4-0.4-13.3,1.1-20.1,4.5c-6.1,3.1-11.4,7.5-15.2,12.8   c-0.4,0.6-0.9,1.1-1.2,1.7l0,0c0.1,0,0.2,0,0.2,0h0.1l0,0l0,0c0.9,0,1.6,0.4,2.2,1c0.1,0.2,0.4,0.5,0.5,0.7   c0.2,0.6,0.4,1.4,0.1,2.1l-7.7,24v0.1c0.5,1.4,1,2.8,1.7,4.2c1.7,3.4,3.8,6.4,6.3,8.8l2.3-0.7c0.7-0.2,1.6-0.1,2.3,0.2   c0.7,0.4,1.2,1.1,1.4,2l0.7,3.4c8.7,4.7,19.7,4.2,30.7-1.4c2.1-1,4.1-2.2,6-3.6c-2.3-7.7-1.6-16.1,2.3-24.3   C280.9,120.5,285.3,115.6,290.9,112.1z M267.5,134c-1.1,3.1-3.2,5.5-6,6.9c-1.5,0.7-3.1,1-4.7,1c-2.1,0-4.2-0.5-6.1-1.6   c-3.6-1.8-6.5-5-8.5-9.1c-2.2-4.8-2.6-10-1-14.3c1.1-3.2,3.2-5.5,6-6.8c6.6-3.1,15.4,1.2,19.3,9.6   C268.7,124.6,269.1,129.7,267.5,134z M435.3,164.9l-8.2-1l-0.1,2.4l2.8-0.2l-1.4,9.1l3.4,0.3l0.3-9l2.8,0.6L435.3,164.9z    M445.4,166l-3.5,6.7l-1.3-7.4l-4.2-0.3l-0.4,3.4l-1,7.9l2.9,0.3l1.1-7.8l1.2,8.2l2.6,0.4l3.4-7.3l-1.1,7.6l2.8,0.4l1.4-11.4   L445.4,166z M133.8,144.2c0-0.1-0.2-0.5-0.6-0.6l-6.4-2.7l-1.5-0.6l-1.5-0.6l-11.3-4.7l16.1-23.1c0.2-0.5,0.2-1.1-0.2-1.5l-13-9.6   l-1.4-1l-0.9-0.6c-0.4-0.2-0.6-0.2-0.9-0.1c-0.1,0-0.5,0.1-0.6,0.5l-1.2,2.2l-1.4,2.5L93,132.7l-1.8-31.8l-18.1,4.8l-1.6,0.4   l-1.6,0.4l-1.2,0.4c-0.1,0-0.2,0.1-0.4,0.2c-0.2,0.2-0.4,0.6-0.4,1l0.1,0.6l0.4,1.8l11.2,57.5c0.1,0.5,0.6,0.9,1.1,0.9l19.9-2.1   c0.4,0,0.6-0.2,0.7-0.5c0.1-0.1,0.2-0.5,0.1-0.9l-8.2-23.7l27.5,20.4c0.2,0.2,0.6,0.2,0.7,0.1c0.1,0,0.5-0.1,0.7-0.4l0.6-1l0.9-1.2   l0,0l0.9-1.2l9-13.3C133.9,144.8,133.9,144.5,133.8,144.2z M189.8,161.4l-8-19.7l-4.7,1.6c-0.9,0.4-2,0.1-2.7-0.4   c-0.7-0.6-1.2-1.5-1.2-2.5l0.5-18.4l-8.5-20.6c-0.1-0.1-0.2-0.2-0.4-0.2l-2.9-0.5c-0.1,0-0.4,0-0.4,0.1l-32.2,37.4l5.3,2.2   c1.2,0.5,2.2,1.6,2.6,2.8c0.4,1.4,0.1,2.7-0.6,3.8l-9.1,13.5l7.7,6.4l5.2-14.1l24.3,3.2l2.6,14.4c0,0.2,0.1,0.2,0.2,0.4   c0.1,0,0.2,0.1,0.4,0l20.3-5.2L189.8,161.4z M146.6,141.1l12.5-15.6l4.2,19L146.6,141.1z M176.8,120.7v1l-0.1,3.7l0,0l-0.1,3.7   l-0.4,11.5l4.4-1.6l1.5-0.5l1.5-0.5l21.4-7.5l-11.8,30.8l-0.9,2.1l0,0l-1.2,3.2l-0.7,1.7l-5.8,15l55.2-9.1l-3.3-16.1l-0.5-2.3l0,0   l-0.5-2.5l-0.1-0.7l-0.5,0.1l-2,0.6l0,0l-2,0.6l-16.8,5.3l6.8-21.1l1-3.2l1.2-3.7l6-18.7L176.8,120.7z"></path>
</g>
</svg>
